<?xml version="1.0" encoding="UTF-8" standalone="no"?>
<!-- Created with Inkscape (http://www.inkscape.org/) -->

<svg
   width="21.166666mm"
   height="9.5788078mm"
   viewBox="0 0 21.166666 9.5788078"
   version="1.1"
   id="svg1"
   inkscape:version="1.3 (0e150ed, 2023-07-21)"
   sodipodi:docname="EDU2026_Design.svg"
   xmlns:inkscape="http://www.inkscape.org/namespaces/inkscape"
   xmlns:sodipodi="http://sodipodi.sourceforge.net/DTD/sodipodi-0.dtd"
   xmlns="http://www.w3.org/2000/svg"
   xmlns:svg="http://www.w3.org/2000/svg">
  <sodipodi:namedview
     id="namedview1"
     pagecolor="#ffffff"
     bordercolor="#000000"
     borderopacity="0.25"
     inkscape:showpageshadow="2"
     inkscape:pageopacity="0.0"
     inkscape:pagecheckerboard="0"
     inkscape:deskcolor="#d1d1d1"
     inkscape:document-units="mm"
     inkscape:zoom="0.32548132"
     inkscape:cx="1215.1235"
     inkscape:cy="2321.1778"
     inkscape:window-width="1920"
     inkscape:window-height="1052"
     inkscape:window-x="1440"
     inkscape:window-y="0"
     inkscape:window-maximized="1"
     inkscape:current-layer="layer1"
     inkscape:export-bgcolor="#ffffff00"
     showgrid="false" />
  <defs
     id="defs1" />
  <g
     inkscape:label="Layer 1"
     inkscape:groupmode="layer"
     id="layer1"
     transform="translate(-467.74443,-644.56105)">
    <g
       id="g53">
      <g
         id="g2"
         inkscape:export-filename="apply.png"
         inkscape:export-xdpi="96"
         inkscape:export-ydpi="96">
        <rect
           style="fill:#ff6600;stroke:#ff6600;stroke-width:2;stroke-dasharray:none;stroke-opacity:1"
           id="rect157-6-7"
           width="19.166666"
           height="7.578795"
           x="468.74445"
           y="645.56104"
           ry="1.7607532" />
        <path
           style="font-weight:bold;font-size:5.26872px;font-family:'.Hiragino Sans GB Interface';-inkscape-font-specification:'.Hiragino Sans GB Interface Bold';text-align:center;text-anchor:middle;fill:#ffffff;stroke:#000000;stroke-width:0"
           d="m 469.94907,655.40119 h 0.64137 c -0.0285,-0.21379 -0.038,-0.34207 -0.038,-0.59386 v -1.27799 c 0,-0.32306 -0.0618,-0.50359 -0.22329,-0.65562 -0.20429,-0.19953 -0.47984,-0.2803 -0.93592,-0.2803 -0.40858,0 -0.67463,0.0713 -0.90742,0.2423 -0.18053,0.12827 -0.26605,0.25179 -0.37532,0.52734 l 0.60811,0.10927 c 0.057,-0.17103 0.0998,-0.23754 0.19004,-0.30405 0.10927,-0.0855 0.30405,-0.13778 0.49409,-0.13778 0.36107,0 0.54635,0.14253 0.54635,0.41808 v 0.24229 c -0.67938,0.0143 -1.03094,0.0618 -1.33975,0.19004 -0.32781,0.13777 -0.53685,0.43708 -0.53685,0.76964 0,0.49884 0.35157,0.79815 0.93118,0.79815 0.15202,0 0.30405,-0.019 0.44183,-0.057 0.19478,-0.0523 0.31355,-0.11878 0.50359,-0.29931 z m 0,-1.05945 c 0,0.16628 -0.057,0.30406 -0.17103,0.41808 -0.16153,0.15678 -0.40858,0.2518 -0.66037,0.2518 -0.26605,0 -0.43233,-0.13778 -0.43233,-0.36107 0,-0.37057 0.35631,-0.52735 1.26373,-0.54635 z m 1.83859,-1.66755 h -0.63187 c 0.0237,0.20428 0.0333,0.36106 0.0333,0.63661 v 2.38969 c 0,0.2423 -0.01,0.40383 -0.0333,0.62712 h 0.66987 c -0.0238,-0.19954 -0.0333,-0.35157 -0.0333,-0.63187 v -0.36106 c 0,-0.0855 0,-0.17104 -0.005,-0.20429 -0.005,-0.095 -0.005,-0.095 -0.005,-0.15203 0.22804,0.30881 0.5416,0.45608 0.95967,0.45608 0.80765,0 1.28749,-0.52734 1.28749,-1.4015 0,-0.47984 -0.12352,-0.83616 -0.37532,-1.09271 -0.21854,-0.21854 -0.5226,-0.33256 -0.90267,-0.33256 -0.42757,0 -0.70788,0.13303 -0.96917,0.46559 0.005,-0.0618 0.005,-0.11402 0.005,-0.16628 z m 1.6248,1.34924 c 0,0.56061 -0.28981,0.91217 -0.75539,0.91217 -0.49409,0 -0.84566,-0.38007 -0.84566,-0.92167 0,-0.50834 0.35632,-0.89791 0.82665,-0.89791 0.47984,0 0.7744,0.34681 0.7744,0.90741 z m 1.73881,-1.34924 h -0.63186 c 0.0238,0.20428 0.0333,0.36106 0.0333,0.63661 v 2.38969 c 0,0.2423 -0.01,0.40383 -0.0333,0.62712 h 0.66987 c -0.0238,-0.19954 -0.0333,-0.35157 -0.0333,-0.63187 v -0.36106 c 0,-0.0855 0,-0.17104 -0.005,-0.20429 -0.005,-0.095 -0.005,-0.095 -0.005,-0.15203 0.22804,0.30881 0.5416,0.45608 0.95968,0.45608 0.80765,0 1.28749,-0.52734 1.28749,-1.4015 0,-0.47984 -0.12353,-0.83616 -0.37532,-1.09271 -0.21854,-0.21854 -0.5226,-0.33256 -0.90267,-0.33256 -0.42758,0 -0.70788,0.13303 -0.96918,0.46559 0.005,-0.0618 0.005,-0.11402 0.005,-0.16628 z m 1.6248,1.34924 c 0,0.56061 -0.2898,0.91217 -0.75539,0.91217 -0.49409,0 -0.84565,-0.38007 -0.84565,-0.92167 0,-0.50834 0.35631,-0.89791 0.82665,-0.89791 0.47984,0 0.77439,0.34681 0.77439,0.90741 z m 1.10695,-2.40394 c 0.0238,0.18053 0.0333,0.33256 0.0333,0.61762 v 2.54646 c 0,0.27555 -0.009,0.41333 -0.0333,0.61762 h 0.68888 c -0.0238,-0.20904 -0.0333,-0.36582 -0.0333,-0.61762 v -2.54171 c 0,-0.28506 0.01,-0.43708 0.0333,-0.62237 z m 2.19491,3.59166 -0.16153,0.36582 c -0.0665,0.14728 -0.20429,0.23754 -0.37057,0.23754 -0.10927,0 -0.19954,-0.0238 -0.33256,-0.0808 l -0.10927,0.5416 c 0.21854,0.0428 0.35631,0.057 0.49884,0.057 0.44183,0 0.72213,-0.16628 0.87416,-0.52735 l 1.0832,-2.54172 c 0.14252,-0.33256 0.22804,-0.52734 0.25655,-0.5891 h -0.70789 c -0.0285,0.15202 -0.0665,0.2708 -0.18053,0.5606 l -0.52735,1.3445 -0.5796,-1.34925 c -0.0855,-0.19479 -0.15678,-0.41808 -0.18054,-0.55585 h -0.72213 c 0.057,0.10451 0.0618,0.11877 0.2708,0.5891 z"
           id="text13-7-8-5-1-3-6"
           transform="scale(1.0071233,0.99292708)"
           aria-label="apply" />
      </g>
    </g>
  </g>
</svg>
