<?xml version="1.0" encoding="UTF-8" standalone="no"?>
<!-- Created with Inkscape (http://www.inkscape.org/) -->

<svg
   width="37.129742mm"
   height="9.578743mm"
   viewBox="0 0 37.129742 9.578743"
   version="1.1"
   id="svg1"
   inkscape:version="1.3 (0e150ed, 2023-07-21)"
   sodipodi:docname="EDU2026_Design.svg"
   xmlns:inkscape="http://www.inkscape.org/namespaces/inkscape"
   xmlns:sodipodi="http://sodipodi.sourceforge.net/DTD/sodipodi-0.dtd"
   xmlns="http://www.w3.org/2000/svg"
   xmlns:svg="http://www.w3.org/2000/svg">
  <sodipodi:namedview
     id="namedview1"
     pagecolor="#ffffff"
     bordercolor="#000000"
     borderopacity="0.25"
     inkscape:showpageshadow="2"
     inkscape:pageopacity="0.0"
     inkscape:pagecheckerboard="0"
     inkscape:deskcolor="#d1d1d1"
     inkscape:document-units="mm"
     inkscape:zoom="0.32548132"
     inkscape:cx="1215.1235"
     inkscape:cy="2321.1778"
     inkscape:window-width="1920"
     inkscape:window-height="1052"
     inkscape:window-x="1440"
     inkscape:window-y="0"
     inkscape:window-maximized="1"
     inkscape:current-layer="layer1"
     inkscape:export-bgcolor="#ffffff00"
     showgrid="false" />
  <defs
     id="defs1" />
  <g
     inkscape:label="Layer 1"
     inkscape:groupmode="layer"
     id="layer1"
     transform="translate(-529.10115,-624.27901)">
    <g
       id="g58">
      <g
         id="g4"
         inkscape:export-filename="comingsoon.png"
         inkscape:export-xdpi="96"
         inkscape:export-ydpi="96">
        <rect
           style="fill:#666666;stroke:#666666;stroke-width:2;stroke-dasharray:none;stroke-opacity:1"
           id="rect157-6-76"
           width="35.129772"
           height="7.578795"
           x="530.10114"
           y="625.27899"
           ry="1.7607532" />
        <path
           style="font-weight:bold;font-size:5.26872px;font-family:'.Hiragino Sans GB Interface';-inkscape-font-specification:'.Hiragino Sans GB Interface Bold';text-align:center;text-anchor:middle;fill:#ffffff;stroke:#000000;stroke-width:0"
           d="m 530.27382,633.02213 c -0.0665,-0.17579 -0.10452,-0.2518 -0.16628,-0.34682 -0.22804,-0.33256 -0.59861,-0.51309 -1.0642,-0.51309 -0.38957,0 -0.72213,0.12352 -0.95492,0.36106 -0.2613,0.26605 -0.40383,0.65087 -0.40383,1.09746 0,0.87891 0.5416,1.44426 1.37775,1.44426 0.45134,0 0.81716,-0.16628 1.0452,-0.47984 0.0855,-0.11402 0.13302,-0.21379 0.19953,-0.40382 l -0.5891,-0.11877 c -0.0285,0.11877 -0.0523,0.17103 -0.095,0.23754 -0.11877,0.17103 -0.30881,0.26605 -0.54635,0.26605 -0.47984,0 -0.7744,-0.36582 -0.7744,-0.95968 0,-0.58911 0.28981,-0.95492 0.75539,-0.95492 0.20904,0 0.37532,0.076 0.48934,0.21854 0.0618,0.076 0.095,0.14252 0.14728,0.2898 z m 1.80058,2.04287 c 0.84565,0 1.4015,-0.5796 1.4015,-1.45852 0,-0.87891 -0.54635,-1.43951 -1.40626,-1.43951 -0.86466,0 -1.41576,0.56535 -1.41576,1.44901 0,0.88842 0.5511,1.44902 1.42052,1.44902 z m -0.005,-2.40394 c 0.5036,0 0.7934,0.35156 0.7934,0.96443 0,0.5796 -0.30406,0.93592 -0.79815,0.93592 -0.49409,0 -0.79814,-0.36107 -0.79814,-0.94543 0,-0.59385 0.30405,-0.95492 0.80289,-0.95492 z m 2.55122,2.31368 c -0.0238,-0.21855 -0.0333,-0.36107 -0.0333,-0.61762 v -0.94067 c 0.0523,-0.22804 0.0998,-0.33731 0.20429,-0.47509 0.12827,-0.16628 0.2898,-0.24704 0.48934,-0.24704 0.30881,0 0.46084,0.19953 0.46084,0.59861 v 1.06419 c 0,0.2708 -0.01,0.41808 -0.038,0.61762 h 0.68412 c -0.0238,-0.19479 -0.0333,-0.35632 -0.0333,-0.61762 v -0.94067 c 0.057,-0.29456 0.13302,-0.44658 0.2993,-0.58911 0.11402,-0.0998 0.2328,-0.14253 0.38958,-0.14253 0.3183,0 0.46558,0.19004 0.46558,0.60812 v 1.06419 c 0,0.2803 -0.01,0.42283 -0.038,0.61762 h 0.69363 c -0.0285,-0.19479 -0.038,-0.35157 -0.038,-0.61762 v -1.17346 c 0,-0.33732 -0.0665,-0.55111 -0.22329,-0.72214 -0.16153,-0.17578 -0.40857,-0.2708 -0.71263,-0.2708 -0.21379,0 -0.37532,0.038 -0.5321,0.12353 -0.14727,0.076 -0.23754,0.16152 -0.39907,0.37531 -0.057,-0.14727 -0.095,-0.20903 -0.18053,-0.28505 -0.14728,-0.14252 -0.35632,-0.21379 -0.61287,-0.21379 -0.39432,0 -0.74588,0.18529 -0.88366,0.47509 0.005,-0.076 0.005,-0.14728 0.005,-0.17578 v -0.2423 h -0.63661 c 0.0237,0.18054 0.0332,0.31831 0.0332,0.61762 v 1.49177 c 0,0.25655 -0.01,0.41333 -0.0332,0.61762 z m 4.12851,-3.7817 v 0.60336 h 0.69838 v -0.60336 z m 0,1.05469 c 0.0285,0.19479 0.038,0.35632 0.038,0.61762 v 1.49177 c 0,0.23755 -0.01,0.40383 -0.038,0.61762 h 0.69363 c -0.0238,-0.19954 -0.0333,-0.36107 -0.0333,-0.62237 v -1.48227 c 0,-0.28981 0.009,-0.44658 0.0333,-0.62237 z m 1.97161,2.72701 c -0.0285,-0.20429 -0.038,-0.38483 -0.038,-0.61762 v -0.95968 c 0.20904,-0.47033 0.48934,-0.70788 0.83141,-0.70788 0.18053,0 0.32305,0.0713 0.39907,0.19479 0.057,0.0903 0.0808,0.21854 0.0808,0.41808 v 1.05469 c 0,0.2423 -0.01,0.40383 -0.0332,0.61762 h 0.68887 c -0.0285,-0.17579 -0.038,-0.35632 -0.038,-0.61762 v -1.14021 c 0,-0.31831 -0.0475,-0.50834 -0.16153,-0.66512 -0.17103,-0.23279 -0.44183,-0.35157 -0.80765,-0.35157 -0.42758,0 -0.67938,0.13303 -0.96918,0.5036 0.01,-0.11877 0.01,-0.13303 0.01,-0.20429 v -0.2518 h -0.64612 c 0.0285,0.19479 0.038,0.35632 0.038,0.61762 v 1.49177 c 0,0.26605 -0.009,0.41333 -0.038,0.61762 z m 2.45619,0.43708 c 0.32306,0.36581 0.63662,0.49409 1.19247,0.49409 0.48934,0 0.88367,-0.10927 1.12121,-0.30406 0.27555,-0.23279 0.39907,-0.59861 0.39907,-1.16871 v -1.59155 c 0,-0.25654 0.01,-0.38957 0.0333,-0.59386 h -0.63662 v 0.21854 c 0,0.0523 0,0.0618 0.01,0.15678 -0.20428,-0.2898 -0.48459,-0.41807 -0.90741,-0.41807 -0.76964,0 -1.26849,0.53209 -1.26849,1.35399 0,0.8124 0.48459,1.33025 1.23998,1.33025 0.41333,0 0.69363,-0.13303 0.93117,-0.43233 -0.01,0.32306 -0.0427,0.48934 -0.12352,0.63187 -0.13302,0.22804 -0.41333,0.35631 -0.77914,0.35631 -0.34207,0 -0.5511,-0.10452 -0.73639,-0.36106 z m 0.56536,-1.83859 c 0,-0.56536 0.29455,-0.92167 0.76964,-0.92167 0.17103,0 0.32781,0.0618 0.46083,0.17103 0.19004,0.16153 0.28506,0.39907 0.28506,0.70313 0,0.21854 -0.0428,0.39432 -0.13303,0.5416 -0.13302,0.22329 -0.39907,0.37532 -0.66037,0.37532 -0.18053,0 -0.38482,-0.0855 -0.50359,-0.21379 -0.14253,-0.14253 -0.21854,-0.37532 -0.21854,-0.65562 z m 4.24253,0.62711 c 0.057,0.21379 0.0998,0.30881 0.18528,0.42283 0.20429,0.27555 0.5701,0.42283 1.05945,0.42283 0.43232,0 0.76489,-0.10452 0.98343,-0.30881 0.14252,-0.13302 0.23279,-0.34206 0.23279,-0.53685 0,-0.2613 -0.0903,-0.45608 -0.27555,-0.58911 -0.15678,-0.11877 -0.35157,-0.18528 -0.83616,-0.2898 -0.2708,-0.0618 -0.37056,-0.0903 -0.47508,-0.14253 -0.095,-0.0523 -0.14728,-0.13302 -0.14728,-0.22329 0,-0.19953 0.19954,-0.33256 0.49409,-0.33256 0.30881,0 0.47034,0.11402 0.5226,0.37532 l 0.62711,-0.0808 c -0.0665,-0.2328 -0.13302,-0.35157 -0.25654,-0.47034 -0.19479,-0.18053 -0.5036,-0.27555 -0.89317,-0.27555 -0.43233,0 -0.75539,0.12352 -0.95017,0.37057 -0.095,0.11877 -0.14728,0.27555 -0.14728,0.44183 0,0.27555 0.14728,0.50359 0.41808,0.63186 0.16153,0.076 0.3088,0.12353 0.68412,0.20429 0.38007,0.0855 0.40858,0.0903 0.49884,0.15203 0.076,0.0523 0.12353,0.14253 0.12353,0.23754 0,0.2233 -0.21854,0.36107 -0.57011,0.36107 -0.37057,0 -0.54635,-0.12827 -0.62711,-0.45133 z m 4.24252,0.86466 c 0.84566,0 1.40151,-0.5796 1.40151,-1.45852 0,-0.87891 -0.54635,-1.43951 -1.40626,-1.43951 -0.86466,0 -1.41576,0.56535 -1.41576,1.44901 0,0.88842 0.5511,1.44902 1.42051,1.44902 z m -0.005,-2.40394 c 0.5036,0 0.7934,0.35156 0.7934,0.96443 0,0.5796 -0.30406,0.93592 -0.79815,0.93592 -0.49409,0 -0.79814,-0.36107 -0.79814,-0.94543 0,-0.59385 0.30405,-0.95492 0.80289,-0.95492 z m 3.18784,2.40394 c 0.84565,0 1.4015,-0.5796 1.4015,-1.45852 0,-0.87891 -0.54635,-1.43951 -1.40626,-1.43951 -0.86465,0 -1.41576,0.56535 -1.41576,1.44901 0,0.88842 0.55111,1.44902 1.42052,1.44902 z m -0.005,-2.40394 c 0.5036,0 0.7934,0.35156 0.7934,0.96443 0,0.5796 -0.30406,0.93592 -0.79815,0.93592 -0.49409,0 -0.79814,-0.36107 -0.79814,-0.94543 0,-0.59385 0.30405,-0.95492 0.80289,-0.95492 z m 2.56547,2.31368 c -0.0285,-0.20429 -0.038,-0.38483 -0.038,-0.61762 v -0.95968 c 0.20903,-0.47033 0.48934,-0.70788 0.8314,-0.70788 0.18053,0 0.32306,0.0713 0.39907,0.19479 0.057,0.0903 0.0808,0.21854 0.0808,0.41808 v 1.05469 c 0,0.2423 -0.01,0.40383 -0.0333,0.61762 h 0.68888 c -0.0285,-0.17579 -0.038,-0.35632 -0.038,-0.61762 v -1.14021 c 0,-0.31831 -0.0475,-0.50834 -0.16153,-0.66512 -0.17103,-0.23279 -0.44183,-0.35157 -0.80765,-0.35157 -0.42758,0 -0.67937,0.13303 -0.96918,0.5036 0.01,-0.11877 0.01,-0.13303 0.01,-0.20429 v -0.2518 h -0.64612 c 0.0285,0.19479 0.038,0.35632 0.038,0.61762 v 1.49177 c 0,0.26605 -0.01,0.41333 -0.038,0.61762 z"
           id="text13-7-8-5-1-3-8"
           transform="scale(1.0071233,0.99292708)"
           aria-label="coming soon" />
      </g>
    </g>
  </g>
</svg>
