<?xml version="1.0" encoding="UTF-8" standalone="no"?>
<!-- Created with Inkscape (http://www.inkscape.org/) -->

<svg
   width="32.240376mm"
   height="9.5788078mm"
   viewBox="0 0 32.240376 9.5788078"
   version="1.1"
   id="svg1"
   inkscape:version="1.3 (0e150ed, 2023-07-21)"
   sodipodi:docname="EDU2026_Design.svg"
   xmlns:inkscape="http://www.inkscape.org/namespaces/inkscape"
   xmlns:sodipodi="http://sodipodi.sourceforge.net/DTD/sodipodi-0.dtd"
   xmlns="http://www.w3.org/2000/svg"
   xmlns:svg="http://www.w3.org/2000/svg">
  <sodipodi:namedview
     id="namedview1"
     pagecolor="#ffffff"
     bordercolor="#000000"
     borderopacity="0.25"
     inkscape:showpageshadow="2"
     inkscape:pageopacity="0.0"
     inkscape:pagecheckerboard="0"
     inkscape:deskcolor="#d1d1d1"
     inkscape:document-units="mm"
     inkscape:zoom="0.32548132"
     inkscape:cx="1215.1235"
     inkscape:cy="2321.1778"
     inkscape:window-width="1920"
     inkscape:window-height="1052"
     inkscape:window-x="1440"
     inkscape:window-y="0"
     inkscape:window-maximized="1"
     inkscape:current-layer="layer1"
     inkscape:export-bgcolor="#ffffff00"
     showgrid="false" />
  <defs
     id="defs1" />
  <g
     inkscape:label="Layer 1"
     inkscape:groupmode="layer"
     id="layer1"
     transform="translate(-535.06075,-609.20925)">
    <g
       id="g59">
      <g
         id="g3"
         inkscape:export-filename="curriculum.png"
         inkscape:export-xdpi="96"
         inkscape:export-ydpi="96">
        <rect
           style="fill:#000000;stroke:#000000;stroke-width:2;stroke-dasharray:none;stroke-opacity:1"
           id="rect157-6"
           width="30.240343"
           height="7.578795"
           x="536.06073"
           y="610.20929"
           ry="1.7607532" />
        <path
           style="font-weight:bold;font-size:5.26872px;font-family:'.Hiragino Sans GB Interface';-inkscape-font-specification:'.Hiragino Sans GB Interface Bold';text-align:center;text-anchor:middle;fill:#ffffff;stroke:#000000;stroke-width:0"
           d="m 536.31747,617.84506 c -0.0665,-0.17578 -0.10452,-0.25179 -0.16628,-0.34681 -0.22804,-0.33256 -0.59861,-0.5131 -1.0642,-0.5131 -0.38957,0 -0.72213,0.12353 -0.95492,0.36107 -0.2613,0.26605 -0.40383,0.65087 -0.40383,1.09745 0,0.87891 0.5416,1.44427 1.37775,1.44427 0.45134,0 0.81716,-0.16628 1.0452,-0.47984 0.0855,-0.11402 0.13302,-0.21379 0.19953,-0.40382 l -0.5891,-0.11878 c -0.0285,0.11878 -0.0523,0.17104 -0.095,0.23755 -0.11877,0.17103 -0.30881,0.26605 -0.54635,0.26605 -0.47984,0 -0.7744,-0.36582 -0.7744,-0.95968 0,-0.58911 0.28981,-0.95493 0.75539,-0.95493 0.20904,0 0.37532,0.076 0.48934,0.21854 0.0618,0.076 0.095,0.14253 0.14728,0.28981 z m 2.41344,-0.77439 c 0.0237,0.20429 0.038,0.38482 0.038,0.61761 v 0.95968 c -0.21379,0.47034 -0.48459,0.70313 -0.82666,0.70313 -0.0903,0 -0.19003,-0.0285 -0.2613,-0.0665 -0.14727,-0.0903 -0.21854,-0.26605 -0.21854,-0.5416 v -1.0547 c 0,-0.24229 0.005,-0.40382 0.0333,-0.61761 h -0.68888 c 0.0238,0.17578 0.038,0.35632 0.038,0.61761 v 1.20198 c 0,0.38957 0.12352,0.65562 0.38482,0.8219 0.15678,0.095 0.32781,0.13777 0.57011,0.13777 0.45133,0 0.71263,-0.13777 0.97393,-0.50834 -0.005,0.11877 -0.005,0.13302 -0.005,0.20429 v 0.25179 h 0.64611 c -0.0285,-0.19478 -0.038,-0.35631 -0.038,-0.61761 v -1.49178 c 0,-0.26605 0.005,-0.41332 0.038,-0.61761 z m 3.26859,0 c -0.21379,-0.038 -0.32781,-0.0523 -0.44183,-0.0523 -0.42758,0 -0.72213,0.16153 -0.89316,0.49884 v -0.44658 h -0.64612 c 0.0285,0.19479 0.0333,0.32781 0.0333,0.61761 v 1.49178 c 0,0.24704 -0.01,0.38482 -0.0333,0.61761 h 0.67937 c -0.0238,-0.22329 -0.0333,-0.36106 -0.0333,-0.61761 v -0.87891 c 0.0285,-0.22805 0.076,-0.33732 0.19478,-0.47509 0.13303,-0.15678 0.31356,-0.23279 0.5511,-0.23279 0.12353,0 0.2233,0.019 0.42283,0.076 z m 2.33743,0 c -0.21379,-0.038 -0.32781,-0.0523 -0.44184,-0.0523 -0.42757,0 -0.72213,0.16153 -0.89316,0.49884 v -0.44658 h -0.64612 c 0.0285,0.19479 0.0333,0.32781 0.0333,0.61761 v 1.49178 c 0,0.24704 -0.01,0.38482 -0.0333,0.61761 h 0.67938 c -0.0238,-0.22329 -0.0333,-0.36106 -0.0333,-0.61761 v -0.87891 c 0.0285,-0.22805 0.076,-0.33732 0.19479,-0.47509 0.13302,-0.15678 0.31355,-0.23279 0.5511,-0.23279 0.12352,0 0.22329,0.019 0.42283,0.076 z m 0.3468,-1.05469 v 0.60336 h 0.69838 v -0.60336 z m 0,1.05469 c 0.0285,0.19479 0.038,0.35632 0.038,0.61761 v 1.49178 c 0,0.23754 -0.01,0.40382 -0.038,0.61761 h 0.69363 c -0.0237,-0.19953 -0.0332,-0.36106 -0.0332,-0.62236 v -1.48228 c 0,-0.2898 0.01,-0.44658 0.0332,-0.62236 z m 3.76269,0.77439 c -0.0665,-0.17578 -0.10452,-0.25179 -0.16628,-0.34681 -0.22804,-0.33256 -0.59861,-0.5131 -1.06419,-0.5131 -0.38957,0 -0.72214,0.12353 -0.95493,0.36107 -0.2613,0.26605 -0.40382,0.65087 -0.40382,1.09745 0,0.87891 0.5416,1.44427 1.37775,1.44427 0.45133,0 0.81715,-0.16628 1.04519,-0.47984 0.0855,-0.11402 0.13303,-0.21379 0.19954,-0.40382 l -0.58911,-0.11878 c -0.0285,0.11878 -0.0523,0.17104 -0.095,0.23755 -0.11877,0.17103 -0.3088,0.26605 -0.54635,0.26605 -0.47984,0 -0.77439,-0.36582 -0.77439,-0.95968 0,-0.58911 0.2898,-0.95493 0.75539,-0.95493 0.20904,0 0.37532,0.076 0.48934,0.21854 0.0618,0.076 0.095,0.14253 0.14728,0.28981 z m 2.41344,-0.77439 c 0.0238,0.20429 0.038,0.38482 0.038,0.61761 v 0.95968 c -0.21379,0.47034 -0.48459,0.70313 -0.82665,0.70313 -0.0903,0 -0.19004,-0.0285 -0.2613,-0.0665 -0.14728,-0.0903 -0.21854,-0.26605 -0.21854,-0.5416 v -1.0547 c 0,-0.24229 0.005,-0.40382 0.0333,-0.61761 h -0.68888 c 0.0238,0.17578 0.038,0.35632 0.038,0.61761 v 1.20198 c 0,0.38957 0.12352,0.65562 0.38482,0.8219 0.15678,0.095 0.32781,0.13777 0.5701,0.13777 0.45134,0 0.71263,-0.13777 0.97393,-0.50834 -0.005,0.11877 -0.005,0.13302 -0.005,0.20429 v 0.25179 h 0.64612 c -0.0285,-0.19478 -0.038,-0.35631 -0.038,-0.61761 v -1.49178 c 0,-0.26605 0.005,-0.41332 0.038,-0.61761 z m 1.27798,-1.05469 c 0.0238,0.18053 0.0333,0.33256 0.0333,0.61761 v 2.54647 c 0,0.27555 -0.01,0.41332 -0.0333,0.61761 h 0.68888 c -0.0238,-0.20904 -0.0333,-0.36582 -0.0333,-0.61761 v -2.54172 c 0,-0.28505 0.01,-0.43708 0.0333,-0.62236 z m 3.20684,1.05469 c 0.0237,0.20429 0.038,0.38482 0.038,0.61761 v 0.95968 c -0.21379,0.47034 -0.48459,0.70313 -0.82665,0.70313 -0.0903,0 -0.19004,-0.0285 -0.2613,-0.0665 -0.14728,-0.0903 -0.21854,-0.26605 -0.21854,-0.5416 v -1.0547 c 0,-0.24229 0.005,-0.40382 0.0333,-0.61761 h -0.68887 c 0.0238,0.17578 0.038,0.35632 0.038,0.61761 v 1.20198 c 0,0.38957 0.12353,0.65562 0.38482,0.8219 0.15678,0.095 0.32781,0.13777 0.57011,0.13777 0.45133,0 0.71263,-0.13777 0.97393,-0.50834 -0.005,0.11877 -0.005,0.13302 -0.005,0.20429 v 0.25179 h 0.64612 c -0.0285,-0.19478 -0.038,-0.35631 -0.038,-0.61761 v -1.49178 c 0,-0.26605 0.005,-0.41332 0.038,-0.61761 z m 1.94785,2.727 c -0.0238,-0.21854 -0.0333,-0.36106 -0.0333,-0.61761 v -0.94067 c 0.0523,-0.22805 0.0998,-0.33732 0.20429,-0.47509 0.12828,-0.16628 0.28981,-0.24705 0.48934,-0.24705 0.30881,0 0.46084,0.19954 0.46084,0.59861 v 1.0642 c 0,0.2708 -0.01,0.41808 -0.038,0.61761 h 0.68413 c -0.0238,-0.19478 -0.0333,-0.35631 -0.0333,-0.61761 v -0.94067 c 0.057,-0.29456 0.13302,-0.44659 0.29931,-0.58911 0.11402,-0.0998 0.23279,-0.14253 0.38957,-0.14253 0.31831,0 0.46558,0.19004 0.46558,0.60811 v 1.0642 c 0,0.2803 -0.01,0.42283 -0.038,0.61761 h 0.69362 c -0.0285,-0.19478 -0.038,-0.35156 -0.038,-0.61761 v -1.17347 c 0,-0.33731 -0.0665,-0.5511 -0.22329,-0.72213 -0.16153,-0.17578 -0.40858,-0.2708 -0.71264,-0.2708 -0.21379,0 -0.37531,0.038 -0.53209,0.12352 -0.14728,0.076 -0.23755,0.16153 -0.39908,0.37532 -0.057,-0.14728 -0.095,-0.20904 -0.18053,-0.28505 -0.14728,-0.14253 -0.35632,-0.21379 -0.61286,-0.21379 -0.39433,0 -0.74589,0.18528 -0.88367,0.47509 0.005,-0.076 0.005,-0.14728 0.005,-0.17579 v -0.24229 h -0.63661 c 0.0237,0.18053 0.0332,0.31831 0.0332,0.61761 v 1.49178 c 0,0.25655 -0.01,0.41332 -0.0332,0.61761 z"
           id="text13-7-8-5-1-3"
           transform="scale(1.0071233,0.99292708)"
           aria-label="curriculum" />
      </g>
    </g>
  </g>
</svg>
