<?xml version="1.0" encoding="UTF-8" standalone="no"?>
<!-- Created with Inkscape (http://www.inkscape.org/) -->

<svg
   width="31.750015mm"
   height="21.166658mm"
   viewBox="0 0 31.750015 21.166658"
   version="1.1"
   id="svg1"
   inkscape:version="1.3 (0e150ed, 2023-07-21)"
   sodipodi:docname="dk_transparent_120_80.svg"
   xmlns:inkscape="http://www.inkscape.org/namespaces/inkscape"
   xmlns:sodipodi="http://sodipodi.sourceforge.net/DTD/sodipodi-0.dtd"
   xmlns="http://www.w3.org/2000/svg"
   xmlns:svg="http://www.w3.org/2000/svg">
  <sodipodi:namedview
     id="namedview1"
     pagecolor="#ffffff"
     bordercolor="#000000"
     borderopacity="0.25"
     inkscape:showpageshadow="2"
     inkscape:pageopacity="0.0"
     inkscape:pagecheckerboard="0"
     inkscape:deskcolor="#d1d1d1"
     inkscape:document-units="mm"
     inkscape:zoom="1.7034097"
     inkscape:cx="380.41348"
     inkscape:cy="384.81641"
     inkscape:window-width="1440"
     inkscape:window-height="842"
     inkscape:window-x="0"
     inkscape:window-y="30"
     inkscape:window-maximized="1"
     inkscape:current-layer="layer1" />
  <defs
     id="defs1" />
  <g
     inkscape:label="Layer 1"
     inkscape:groupmode="layer"
     id="layer1"
     transform="translate(-78.582003,-85.344251)">
    <g
       id="g3"
       transform="matrix(0.99283362,0,0,0.999947,0.56423622,0.00453164)"
       style="stroke-width:1.00363">
      <g
         id="g2"
         transform="matrix(1.0072409,0,0,1.0072659,-0.57010373,-0.62121745)"
         style="stroke-width:0.996404">
        <path
           d="m 78.868475,106.00604 h 0.895941 c 1.077903,0 1.556149,-0.84424 1.556149,-2.37058 0,-1.45204 -0.363731,-2.20848 -1.482056,-2.20848 h -0.970034 z m -0.134696,-4.70058 h 1.158694 c 1.266415,0 1.562795,1.04681 1.562795,2.33 0,1.97887 -0.761238,2.49216 -1.764945,2.49216 h -0.956544 z"
           style="fill:#ffffff;fill-opacity:1;fill-rule:nonzero;stroke:#ffffff;stroke-width:0.151775;stroke-opacity:1"
           id="path61"
           inkscape:connector-curvature="0" />
        <path
           d="m 78.868475,106.00604 h 0.895941 c 1.077903,0 1.556149,-0.84424 1.556149,-2.37058 0,-1.45204 -0.363731,-2.20848 -1.482056,-2.20848 h -0.970034 z m -0.134696,-4.70058 h 1.158694 c 1.266415,0 1.562795,1.04681 1.562795,2.33 0,1.97887 -0.761238,2.49216 -1.764945,2.49216 h -0.956544 z"
           style="fill:#ffffff;fill-opacity:1;stroke:#ffffff;stroke-width:0.303549;stroke-linecap:butt;stroke-linejoin:miter;stroke-miterlimit:10;stroke-dasharray:none;stroke-opacity:1"
           id="path62"
           inkscape:connector-curvature="0" />
        <path
           d="m 83.179682,101.427 h -0.0135 l -0.936355,3.01216 h 1.886209 z m -0.08759,-0.12157 h 0.161678 l 1.522381,4.82216 h -0.134755 l -0.491685,-1.56687 h -1.960353 l -0.491737,1.56687 H 81.56293 Z"
           style="fill:#ffffff;fill-opacity:1;fill-rule:nonzero;stroke:#ffffff;stroke-width:0.151775;stroke-opacity:1"
           id="path63"
           inkscape:connector-curvature="0" />
        <path
           d="m 83.179682,101.427 h -0.0135 l -0.936355,3.01216 h 1.886209 z m -0.08759,-0.12157 h 0.161678 l 1.522381,4.82216 h -0.134755 l -0.491685,-1.56687 h -1.960353 l -0.491737,1.56687 H 81.56293 Z"
           style="fill:#ffffff;fill-opacity:1;stroke:#ffffff;stroke-width:0.303549;stroke-linecap:butt;stroke-linejoin:miter;stroke-miterlimit:10;stroke-dasharray:none;stroke-opacity:1"
           id="path64"
           inkscape:connector-curvature="0" />
        <path
           d="M 85.564199,101.427 H 84.25726 v -0.12157 h 2.748471 v 0.12157 h -1.306836 v 4.70059 h -0.134696 z"
           style="fill:#ffffff;fill-opacity:1;fill-rule:nonzero;stroke:#ffffff;stroke-width:0.151775;stroke-opacity:1"
           id="path65"
           inkscape:connector-curvature="0" />
        <path
           d="M 85.564199,101.427 H 84.25726 v -0.12157 h 2.748471 v 0.12157 h -1.306836 v 4.70059 h -0.134696 z"
           style="fill:#ffffff;fill-opacity:1;stroke:#ffffff;stroke-width:0.303549;stroke-linecap:butt;stroke-linejoin:miter;stroke-miterlimit:10;stroke-dasharray:none;stroke-opacity:1"
           id="path66"
           inkscape:connector-curvature="0" />
        <path
           d="m 88.036375,101.427 h -0.0135 l -0.936355,3.01216 h 1.886201 z m -0.08758,-0.12157 h 0.16167 l 1.522381,4.82216 h -0.134747 l -0.491693,-1.56687 H 87.04606 l -0.491737,1.56687 H 86.41962 Z"
           style="fill:#ffffff;fill-opacity:1;fill-rule:nonzero;stroke:#ffffff;stroke-width:0.151775;stroke-opacity:1"
           id="path67"
           inkscape:connector-curvature="0" />
        <path
           d="m 88.036375,101.427 h -0.0135 l -0.936355,3.01216 h 1.886201 z m -0.08758,-0.12157 h 0.16167 l 1.522381,4.82216 h -0.134747 l -0.491693,-1.56687 H 87.04606 l -0.491737,1.56687 H 86.41962 Z"
           style="fill:#ffffff;fill-opacity:1;stroke:#ffffff;stroke-width:0.303549;stroke-linecap:butt;stroke-linejoin:miter;stroke-miterlimit:10;stroke-dasharray:none;stroke-opacity:1"
           id="path68"
           inkscape:connector-curvature="0" />
        <path
           d="m 89.875104,101.30545 h 0.134695 v 2.8433 h 0.0135 l 2.14222,-2.8433 h 0.154928 l -1.542658,2.03287 1.677361,2.78929 h -0.141445 l -1.616751,-2.68796 -0.687146,0.91172 v 1.77624 h -0.134702 z"
           style="fill:#ffffff;fill-opacity:1;fill-rule:nonzero;stroke:#ffffff;stroke-width:0.151775;stroke-opacity:1"
           id="path69"
           inkscape:connector-curvature="0" />
        <path
           d="m 89.875104,101.30545 h 0.134695 v 2.8433 h 0.0135 l 2.14222,-2.8433 h 0.154928 l -1.542658,2.03287 1.677361,2.78929 h -0.141445 l -1.616751,-2.68796 -0.687146,0.91172 v 1.77624 h -0.134702 z"
           style="fill:#ffffff;fill-opacity:1;stroke:#ffffff;stroke-width:0.303549;stroke-linecap:butt;stroke-linejoin:miter;stroke-miterlimit:10;stroke-dasharray:none;stroke-opacity:1"
           id="path70"
           inkscape:connector-curvature="0" />
        <path
           d="m 94.112114,106.08708 c 1.10473,0 1.42804,-1.07386 1.42804,-2.37058 0,-1.29671 -0.32331,-2.37053 -1.42804,-2.37053 -1.118221,0 -1.40797,1.14815 -1.40797,2.37053 0,1.22244 0.289749,2.37058 1.40797,2.37058 m -0.0066,0.12158 c -1.253027,0 -1.535909,-1.29673 -1.535909,-2.49216 0,-1.18862 0.30982,-2.4921 1.535909,-2.4921 1.522477,0 1.569596,1.85729 1.569596,2.4921 0,0.63486 -0.04713,2.49216 -1.569596,2.49216"
           style="fill:#ffffff;fill-opacity:1;fill-rule:nonzero;stroke:#ffffff;stroke-width:0.151775;stroke-opacity:1"
           id="path71"
           inkscape:connector-curvature="0" />
        <path
           d="m 94.112114,106.08708 c 1.10473,0 1.42804,-1.07386 1.42804,-2.37058 0,-1.29671 -0.32331,-2.37053 -1.42804,-2.37053 -1.118221,0 -1.40797,1.14815 -1.40797,2.37053 0,1.22244 0.289749,2.37058 1.40797,2.37058 z m -0.0066,0.12158 c -1.253027,0 -1.535909,-1.29673 -1.535909,-2.49216 0,-1.18862 0.30982,-2.4921 1.535909,-2.4921 1.522477,0 1.569596,1.85729 1.569596,2.4921 0,0.63486 -0.04713,2.49216 -1.569596,2.49216 z"
           style="fill:#ffffff;fill-opacity:1;stroke:#ffffff;stroke-width:0.303549;stroke-linecap:butt;stroke-linejoin:miter;stroke-miterlimit:10;stroke-dasharray:none;stroke-opacity:1"
           id="path72"
           inkscape:connector-curvature="0" />
        <path
           d="m 96.159749,101.30545 h 0.134703 v 4.70059 h 2.054584 v 0.12157 h -2.189287 z"
           style="fill:#ffffff;fill-opacity:1;fill-rule:nonzero;stroke:#ffffff;stroke-width:0.151775;stroke-opacity:1"
           id="path73"
           inkscape:connector-curvature="0" />
        <path
           d="m 96.159749,101.30545 h 0.134703 v 4.70059 h 2.054584 v 0.12157 h -2.189287 z"
           style="fill:#ffffff;fill-opacity:1;stroke:#ffffff;stroke-width:0.303549;stroke-linecap:butt;stroke-linejoin:miter;stroke-miterlimit:10;stroke-dasharray:none;stroke-opacity:1"
           id="path74"
           inkscape:connector-curvature="0" />
        <path
           d="m 98.739594,101.30545 h 2.189386 v 0.12158 h -2.054683 v 2.12067 h 1.906483 v 0.12152 h -1.906483 v 2.33682 h 2.108543 v 0.12157 h -2.243246 z"
           style="fill:#ffffff;fill-opacity:1;fill-rule:nonzero;stroke:#ffffff;stroke-width:0.151775;stroke-opacity:1"
           id="path75"
           inkscape:connector-curvature="0" />
        <path
           d="m 98.739594,101.30545 h 2.189386 v 0.12158 h -2.054683 v 2.12067 h 1.906483 v 0.12152 h -1.906483 v 2.33682 h 2.108543 v 0.12157 h -2.243246 z"
           style="fill:#ffffff;fill-opacity:1;stroke:#ffffff;stroke-width:0.303549;stroke-linecap:butt;stroke-linejoin:miter;stroke-miterlimit:10;stroke-dasharray:none;stroke-opacity:1"
           id="path76"
           inkscape:connector-curvature="0" />
        <path
           d="m 101.31954,101.30545 h 0.13471 v 2.8433 h 0.0135 l 2.14212,-2.8433 h 0.15504 l -1.54266,2.03287 1.67735,2.78929 h -0.14144 l -1.61675,-2.68796 -0.68715,0.91172 v 1.77624 h -0.13469 z"
           style="fill:#ffffff;fill-opacity:1;fill-rule:nonzero;stroke:#ffffff;stroke-width:0.151775;stroke-opacity:1"
           id="path77"
           inkscape:connector-curvature="0" />
        <path
           d="m 101.31954,101.30545 h 0.13471 v 2.8433 h 0.0135 l 2.14212,-2.8433 h 0.15504 l -1.54266,2.03287 1.67735,2.78929 h -0.14144 l -1.61675,-2.68796 -0.68715,0.91172 v 1.77624 h -0.13469 z"
           style="fill:#ffffff;fill-opacity:1;stroke:#ffffff;stroke-width:0.303549;stroke-linecap:butt;stroke-linejoin:miter;stroke-miterlimit:10;stroke-dasharray:none;stroke-opacity:1"
           id="path78"
           inkscape:connector-curvature="0" />
        <path
           d="m 105.06465,101.427 h -1.30683 v -0.12157 h 2.74848 v 0.12157 h -1.30694 v 4.70059 h -0.13471 z"
           style="fill:#ffffff;fill-opacity:1;fill-rule:nonzero;stroke:#ffffff;stroke-width:0.151775;stroke-opacity:1"
           id="path79"
           inkscape:connector-curvature="0" />
        <path
           d="m 105.06465,101.427 h -1.30683 v -0.12157 h 2.74848 v 0.12157 h -1.30694 v 4.70059 h -0.13471 z"
           style="fill:#ffffff;fill-opacity:1;stroke:#ffffff;stroke-width:0.303549;stroke-linecap:butt;stroke-linejoin:miter;stroke-miterlimit:10;stroke-dasharray:none;stroke-opacity:1"
           id="path80"
           inkscape:connector-curvature="0" />
        <path
           d="m 106.77553,101.30544 h 0.1347 v 4.82216 h -0.1347 z"
           style="fill:#ffffff;fill-opacity:1;fill-rule:nonzero;stroke:#ffffff;stroke-width:0.303549;stroke-linecap:butt;stroke-linejoin:miter;stroke-miterlimit:10;stroke-dasharray:none;stroke-opacity:1"
           id="path81"
           inkscape:connector-curvature="0" />
        <path
           d="m 107.22006,101.30545 h 0.1347 l 1.30694,4.60607 h 0.0134 l 1.32043,-4.60607 h 0.1347 l -1.37429,4.82216 h -0.17512 z"
           style="fill:#ffffff;fill-opacity:1;fill-rule:nonzero;stroke:#ffffff;stroke-width:0.151775;stroke-opacity:1"
           id="path82"
           inkscape:connector-curvature="0" />
        <path
           d="m 107.22006,101.30545 h 0.1347 l 1.30694,4.60607 h 0.0134 l 1.32043,-4.60607 h 0.1347 l -1.37429,4.82216 h -0.17512 z"
           style="fill:#ffffff;fill-opacity:1;stroke:#ffffff;stroke-width:0.303549;stroke-linecap:butt;stroke-linejoin:miter;stroke-miterlimit:10;stroke-dasharray:none;stroke-opacity:1"
           id="path83"
           inkscape:connector-curvature="0" />
        <path
           d="m 90.08002,91.631573 c -0.502388,0.503375 -1.316565,0.503375 -1.818909,0 -0.50213,-0.503368 -0.50213,-1.319697 0,-1.822568 0.502344,-0.503368 1.316521,-0.503368 1.818909,0 0.501068,0.502871 0.501068,1.3192 0,1.822568 z"
           style="fill:#ffffff;fill-opacity:1;stroke:#ffffff;stroke-width:0.307888;stroke-linecap:butt;stroke-linejoin:miter;stroke-miterlimit:10;stroke-dasharray:none;stroke-opacity:1"
           id="path84"
           inkscape:connector-curvature="0" />
        <path
           d="m 96.378459,98.671676 c -0.52861,0.529047 -1.385599,0.529047 -1.912933,0 -0.528957,-0.530321 -0.528957,-1.387884 0,-1.918205 0.527334,-0.529054 1.384323,-0.529054 1.912933,0 0.527695,0.530321 0.527695,1.387884 0,1.918205 z"
           style="fill:#ffffff;fill-opacity:1;stroke:#ffffff;stroke-width:0.307888;stroke-linecap:butt;stroke-linejoin:miter;stroke-miterlimit:10;stroke-dasharray:none;stroke-opacity:1"
           id="path85"
           inkscape:connector-curvature="0" />
        <path
           d="m 94.092043,93.615297 c -0.467853,0.467678 -1.226148,0.467678 -1.692681,0 -0.467845,-0.469055 -0.467845,-1.229298 0,-1.697687 0.466533,-0.469056 1.224828,-0.469056 1.692681,0 0.466836,0.468389 0.466836,1.228632 0,1.697687 z"
           style="fill:#ffffff;fill-opacity:1;stroke:#ffffff;stroke-width:0.307888;stroke-linecap:butt;stroke-linejoin:miter;stroke-miterlimit:10;stroke-dasharray:none;stroke-opacity:1"
           id="path86"
           inkscape:connector-curvature="0" />
        <path
           d="m 91.860101,90.237901 c -0.554117,0 -1.004518,-0.450395 -1.004518,-1.007403 0,-0.556963 0.450401,-1.00741 1.004518,-1.00741 0.555282,0 1.00482,0.450447 1.00482,1.00741 0,0.557008 -0.449538,1.007403 -1.00482,1.007403 z"
           style="fill:#ffffff;fill-opacity:1;stroke:#ffffff;stroke-width:0.307888;stroke-linecap:butt;stroke-linejoin:miter;stroke-miterlimit:10;stroke-dasharray:none;stroke-opacity:1"
           id="path87"
           inkscape:connector-curvature="0" />
        <path
           d="m 95.76177,90.796235 c -0.554869,0 -1.00482,-0.449683 -1.00482,-1.005379 0,-0.556348 0.448579,-1.007455 1.00482,-1.007455 0.553254,0 1.004518,0.451107 1.004518,1.007455 0,0.554325 -0.451264,1.005379 -1.004518,1.005379 z"
           style="fill:#ffffff;fill-opacity:1;stroke:#ffffff;stroke-width:0.307888;stroke-linecap:butt;stroke-linejoin:miter;stroke-miterlimit:10;stroke-dasharray:none;stroke-opacity:1"
           id="path88"
           inkscape:connector-curvature="0" />
        <path
           d="m 97.264022,96.057999 c -0.377776,0 -0.685471,-0.307773 -0.685471,-0.68698 0,-0.378746 0.307695,-0.68652 0.685471,-0.68652 0.379347,0 0.685412,0.307774 0.685412,0.68652 0,0.379207 -0.306065,0.68698 -0.685412,0.68698 z"
           style="fill:#ffffff;fill-opacity:1;stroke:#ffffff;stroke-width:0.307888;stroke-linecap:butt;stroke-linejoin:miter;stroke-miterlimit:10;stroke-dasharray:none;stroke-opacity:1"
           id="path89"
           inkscape:connector-curvature="0" />
        <path
           d="m 99.157695,94.375489 c -0.789489,0.0015 -1.431138,-0.640914 -1.431138,-1.433802 0,-0.79085 0.641649,-1.434505 1.431138,-1.434505 0.7905,0 1.430885,0.642277 1.430885,1.434505 0,0.79151 -0.640385,1.433802 -1.430885,1.433802 z"
           style="fill:#ffffff;fill-opacity:1;stroke:#ffffff;stroke-width:0.307888;stroke-linecap:butt;stroke-linejoin:miter;stroke-miterlimit:10;stroke-dasharray:none;stroke-opacity:1"
           id="path90"
           inkscape:connector-curvature="0" />
        <path
           d="m 93.676037,87.540844 c -0.486153,-0.414497 -0.545649,-1.146016 -0.13232,-1.634443 0.415062,-0.487709 1.144745,-0.546988 1.630913,-0.131232 0.4858,0.414445 0.545642,1.146016 0.131856,1.634392 -0.413329,0.487716 -1.144347,0.546388 -1.630449,0.131283 z"
           style="fill:#ffffff;fill-opacity:1;stroke:#ffffff;stroke-width:0.307888;stroke-linecap:butt;stroke-linejoin:miter;stroke-miterlimit:10;stroke-dasharray:none;stroke-opacity:1"
           id="path91"
           inkscape:connector-curvature="0" />
        <path
           d="m 88.684051,94.920254 c -0.380667,-0.381652 -0.380667,-1.001096 0,-1.383312 0.38153,-0.382763 0.999347,-0.382763 1.380014,0 0.381531,0.382216 0.381531,1.000496 0,1.383312 -0.380667,0.3816 -0.998484,0.3816 -1.380014,0 z"
           style="fill:#ffffff;fill-opacity:1;stroke:#ffffff;stroke-width:0.307888;stroke-linecap:butt;stroke-linejoin:miter;stroke-miterlimit:10;stroke-dasharray:none;stroke-opacity:1"
           id="path92"
           inkscape:connector-curvature="0" />
        <path
           d="m 92.244353,95.950378 c 0,-0.332117 0.268078,-0.600887 0.599399,-0.600887 0.330163,0 0.598499,0.26877 0.598499,0.600887 0,0.330806 -0.268336,0.599984 -0.598499,0.599984 -0.331321,0 -0.599399,-0.269178 -0.599399,-0.599984 z"
           style="fill:#ffffff;fill-opacity:1;stroke:#ffffff;stroke-width:0.307888;stroke-linecap:butt;stroke-linejoin:miter;stroke-miterlimit:10;stroke-dasharray:none;stroke-opacity:1"
           id="path93"
           inkscape:connector-curvature="0" />
        <path
           d="m 88.753217,97.296495 c 0,-0.388463 0.313677,-0.704269 0.701042,-0.704269 0.387866,0 0.702561,0.315806 0.702561,0.704269 0,0.388403 -0.314695,0.702935 -0.702561,0.702935 -0.387365,0.0015 -0.701042,-0.314532 -0.701042,-0.702935 z"
           style="fill:#ffffff;fill-opacity:1;stroke:#ffffff;stroke-width:0.307888;stroke-linecap:butt;stroke-linejoin:miter;stroke-miterlimit:10;stroke-dasharray:none;stroke-opacity:1"
           id="path94"
           inkscape:connector-curvature="0" />
        <path
           d="m 99.95487,89.919449 c 0,0.627641 -0.506695,1.136656 -1.133084,1.136656 -0.625982,0 -1.134101,-0.509015 -1.134101,-1.136656 0,-0.627641 0.508119,-1.136048 1.134101,-1.136048 0.626389,0 1.133084,0.508407 1.133084,1.136048 z"
           style="fill:#ffffff;fill-opacity:1;stroke:#ffffff;stroke-width:0.307888;stroke-linecap:butt;stroke-linejoin:miter;stroke-miterlimit:10;stroke-dasharray:none;stroke-opacity:1"
           id="path95"
           inkscape:connector-curvature="0" />
        <path
           d="M 93.394594,91.565816 94.186923,87.79265"
           style="fill:#ffffff;fill-opacity:1;stroke:#ffffff;stroke-width:0.307888;stroke-linecap:butt;stroke-linejoin:miter;stroke-miterlimit:10;stroke-dasharray:none;stroke-opacity:1"
           id="path96"
           inkscape:connector-curvature="0" />
        <path
           d="m 94.01916,91.850697 1.093068,-1.292854"
           style="fill:#ffffff;fill-opacity:1;stroke:#ffffff;stroke-width:0.307888;stroke-linecap:butt;stroke-linejoin:miter;stroke-miterlimit:10;stroke-dasharray:none;stroke-opacity:1"
           id="path97"
           inkscape:connector-curvature="0" />
        <path
           d="m 94.312081,92.221433 3.499508,-1.786314"
           style="fill:#ffffff;fill-opacity:1;stroke:#ffffff;stroke-width:0.307888;stroke-linecap:butt;stroke-linejoin:miter;stroke-miterlimit:10;stroke-dasharray:none;stroke-opacity:1"
           id="path98"
           inkscape:connector-curvature="0" />
        <path
           d="m 94.442166,92.765939 3.284376,0.08772"
           style="fill:#ffffff;fill-opacity:1;stroke:#ffffff;stroke-width:0.307888;stroke-linecap:butt;stroke-linejoin:miter;stroke-miterlimit:10;stroke-dasharray:none;stroke-opacity:1"
           id="path99"
           inkscape:connector-curvature="0" />
        <path
           d="m 94.250866,93.417828 2.438194,1.580699"
           style="fill:#ffffff;fill-opacity:1;stroke:#ffffff;stroke-width:0.307888;stroke-linecap:butt;stroke-linejoin:miter;stroke-miterlimit:10;stroke-dasharray:none;stroke-opacity:1"
           id="path100"
           inkscape:connector-curvature="0" />
        <path
           d="m 92.899124,95.349483 0.11883,-1.383407"
           style="fill:#ffffff;fill-opacity:1;stroke:#ffffff;stroke-width:0.307888;stroke-linecap:butt;stroke-linejoin:miter;stroke-miterlimit:10;stroke-dasharray:none;stroke-opacity:1"
           id="path101"
           inkscape:connector-curvature="0" />
        <path
           d="m 93.642321,93.882237 1.208092,2.600804"
           style="fill:#ffffff;fill-opacity:1;stroke:#ffffff;stroke-width:0.307888;stroke-linecap:butt;stroke-linejoin:miter;stroke-miterlimit:10;stroke-dasharray:none;stroke-opacity:1"
           id="path102"
           inkscape:connector-curvature="0" />
        <path
           d="m 89.910266,96.761141 2.597127,-3.050236"
           style="fill:#ffffff;fill-opacity:1;stroke:#ffffff;stroke-width:0.307888;stroke-linecap:butt;stroke-linejoin:miter;stroke-miterlimit:10;stroke-dasharray:none;stroke-opacity:1"
           id="path149"
           inkscape:connector-curvature="0" />
        <path
           d="m 90.284833,93.882237 1.849136,-0.67015"
           style="fill:#ffffff;fill-opacity:1;stroke:#ffffff;stroke-width:0.307888;stroke-linecap:butt;stroke-linejoin:miter;stroke-miterlimit:10;stroke-dasharray:none;stroke-opacity:1"
           id="path150"
           inkscape:connector-curvature="0" />
        <path
           d="m 90.284833,91.277882 1.888444,0.954986"
           style="fill:#ffffff;fill-opacity:1;stroke:#ffffff;stroke-width:0.307888;stroke-linecap:butt;stroke-linejoin:miter;stroke-miterlimit:10;stroke-dasharray:none;stroke-opacity:1"
           id="path151"
           inkscape:connector-curvature="0" />
        <path
           d="m 92.220476,90.17041 0.569334,1.485508"
           style="fill:#ffffff;fill-opacity:1;stroke:#ffffff;stroke-width:0.307888;stroke-linecap:butt;stroke-linejoin:miter;stroke-miterlimit:10;stroke-dasharray:none;stroke-opacity:1"
           id="path154"
           inkscape:connector-curvature="0" />
      </g>
    </g>
  </g>
</svg>
